<svg width="68" height="62" viewBox="0 0 68 62" fill="none" xmlns="http://www.w3.org/2000/svg">
<path d="M7.77628 9.10518C14.4374 2.33305 23.6537 0.508255 33.9444 0.0748177C41.7857 -0.253464 50.0451 0.397968 56.6466 4.0591C66.0207 9.25906 70.1221 20.2155 66.93 29.4203C63.7378 38.625 54.0706 46.4154 43.1503 48.3453H42.244C43.9078 53.7171 47.6729 58.5862 52.7863 61.9755C44.265 62.4269 35.9237 56.5883 34.687 49.3096C23.6403 51.0139 12.3673 46.6782 5.30292 39.1649C-1.76148 31.6503 -2.55765 19.6128 7.77628 9.10518Z" fill="#00D6AC"/>
<path d="M26.4785 26.875L27.6225 29.0323C28.0097 29.7624 28.2033 30.1274 28.4619 30.4437C28.6914 30.7244 28.9583 30.9761 29.256 31.1925C29.5915 31.4363 29.9787 31.6188 30.753 31.9839L33.041 33.0625L30.753 34.1411C29.9787 34.5062 29.5915 34.6887 29.256 34.9325C28.9583 35.1489 28.6914 35.4006 28.4619 35.6813C28.2033 35.9976 28.0097 36.3626 27.6225 37.0927L26.4785 39.25L25.3345 37.0927C24.9473 36.3626 24.7538 35.9976 24.4951 35.6813C24.2657 35.4006 23.9988 35.1489 23.701 34.9325C23.3655 34.6887 22.9784 34.5062 22.204 34.1411L19.916 33.0625L22.204 31.9839C22.9784 31.6188 23.3655 31.4363 23.701 31.1925C23.9988 30.9761 24.2657 30.7244 24.4951 30.4437C24.7538 30.1274 24.9473 29.7624 25.3345 29.0323L26.4785 26.875Z" stroke="white" stroke-width="2" stroke-linecap="round" stroke-linejoin="round"/>
<path d="M38.8743 11.75L40.5932 15.9636C41.0044 16.9718 41.2101 17.4759 41.5298 17.8999C41.8133 18.2757 42.1615 18.604 42.5601 18.8712C43.0098 19.1727 43.5444 19.3666 44.6137 19.7544L49.0827 21.375L44.6137 22.9956C43.5444 23.3834 43.0098 23.5773 42.5601 23.8788C42.1615 24.146 41.8133 24.4743 41.5298 24.8501C41.2101 25.2741 41.0044 25.7782 40.5932 26.7864L38.8743 31L37.1555 26.7864C36.7443 25.7782 36.5386 25.2741 36.2188 24.8501C35.9354 24.4743 35.5872 24.146 35.1886 23.8788C34.7389 23.5773 34.2043 23.3834 33.135 22.9956L28.666 21.375L33.135 19.7544C34.2043 19.3666 34.7389 19.1727 35.1886 18.8712C35.5872 18.604 35.9354 18.2757 36.2188 17.8999C36.5386 17.4759 36.7443 16.9718 37.1555 15.9636L38.8743 11.75Z" stroke="white" stroke-width="2" stroke-linecap="round" stroke-linejoin="round"/>
</svg>
